<svg width="39" height="40" viewBox="0 0 39 40" fill="none" xmlns="http://www.w3.org/2000/svg">
<path d="M19.5 33L7.1797 17.5996C6.84718 17.184 6.68092 16.9762 6.63625 16.7257C6.59159 16.4752 6.67575 16.2228 6.84407 15.7178L8.8383 9.73509C9.27832 8.41505 9.49832 7.75503 10.0221 7.37752C10.5459 7 11.2416 7 12.633 7H26.367C27.7584 7 28.4541 7 28.9779 7.37752C29.5017 7.75503 29.7217 8.41505 30.1617 9.73509L32.1559 15.7178C32.3243 16.2228 32.4084 16.4752 32.3637 16.7257C32.3191 16.9762 32.1528 17.184 31.8203 17.5996L19.5 33ZM19.5 33L25.1875 15.125M19.5 33L13.8125 15.125M31.6875 16.75L25.1875 15.125M25.1875 15.125L22.75 8.625M25.1875 15.125H13.8125M16.25 8.625L13.8125 15.125M13.8125 15.125L7.3125 16.75" stroke="#192D5F" stroke-width="2" stroke-linecap="round"/>
</svg>
