<svg width="31" height="31" viewBox="0 0 31 31" fill="none" xmlns="http://www.w3.org/2000/svg">
<path d="M26.3616 9.48078V22.3389C26.3616 25.1003 24.123 27.3389 21.3616 27.3389H11.0194C8.258 27.3389 6.01942 25.1003 6.01942 22.3389V9.48078C6.01942 6.71935 8.258 4.48078 11.0194 4.48078H21.3616C24.123 4.48078 26.3616 6.71935 26.3616 9.48078Z" stroke="black" stroke-width="1.5" stroke-linecap="round" stroke-linejoin="round"/>
<path d="M15.8607 20.8349C18.6174 20.8349 20.8521 18.6099 20.8521 15.8652C20.8521 13.1205 18.6174 10.8955 15.8607 10.8955C13.1041 10.8955 10.8694 13.1205 10.8694 15.8652C10.8694 18.6099 13.1041 20.8349 15.8607 20.8349Z" stroke="black" stroke-width="1.5" stroke-linecap="round" stroke-linejoin="round"/>
<path d="M22.7239 9.04416L22.7364 9.03036" stroke="black" stroke-width="1.5" stroke-linecap="round" stroke-linejoin="round"/>
</svg>
