<svg width="125" height="142" viewBox="0 0 125 142" fill="none" xmlns="http://www.w3.org/2000/svg">
<path d="M120.549 72.1755C118.022 76.8799 113.679 79.3147 108.593 80.9445C106.833 81.5089 105.228 82.358 103.616 83.2167C100.98 84.619 98.4837 84.8912 95.528 84.6906C93.4468 84.5493 91.4827 84.3577 89.4133 84.6817C88.2842 84.8574 87.1687 85.2395 86.0767 85.6795C90.0431 83.1124 94.4964 81.2174 99.1179 79.9557C105.864 78.1141 111.431 74.4049 115.337 68.8633C115.542 68.5714 115.049 68.3067 114.842 68.5912C112.474 71.8362 109.429 74.3728 105.881 76.4325C102.546 78.369 98.7771 79.0925 95.1293 80.2879C91.7034 81.4098 88.3341 83.1031 85.2706 85.1786C85.6447 84.6102 86.0089 84.0333 86.4237 83.505C88.3286 81.0783 90.2878 79.3368 92.9137 77.607C96.3619 75.3351 98.8781 73.3428 101.453 70.218C104.965 65.9591 110.182 66.8334 115.077 65.3931C119.272 64.1583 121.666 61.6751 124.421 58.761C123.796 63.298 122.753 68.0724 120.549 72.1755ZM69.3846 115.964C73.4053 116.148 76.655 115.668 80.341 114.105C84.5335 112.327 88.2066 109.557 92.6777 108.379C95.1521 107.727 97.5692 108.313 100.048 108.049C101.266 107.919 102.456 107.333 103.563 106.765C102.645 108.28 102.032 109.929 101.187 111.491C100.011 113.666 97.6221 115.384 95.647 116.895C91.7866 119.848 87.3086 122.149 82.7019 123.877C78.0175 125.634 72.7385 126.41 68.0578 124.264C66.0955 123.365 64.5283 121.765 62.8095 120.517C62.2167 120.086 61.5739 119.738 60.907 119.433C63.8153 119.965 66.7007 120.582 69.6084 121.143C76.7757 122.523 82.4801 118.323 88.2978 114.971C88.6528 114.766 88.3434 114.29 87.9773 114.453C84.7634 115.879 81.8767 117.887 78.7127 119.413C74.2989 121.542 70.1944 120.596 65.6185 119.607C63.191 119.083 60.7382 118.675 58.2798 118.299C59.1913 117.889 60.0332 117.366 60.9607 116.913C63.5565 115.642 66.5633 115.835 69.3846 115.964ZM31.8302 133.564C34.8808 133.761 37.9301 132.577 40.8834 131.988C45.3064 131.105 48.9616 132.168 53.1585 132.883C51.9296 133.597 50.9627 135.087 50.1264 135.98C47.1793 139.128 40.8686 140.36 36.6218 140.7C34.0223 140.909 32.0403 139.3 29.85 138.322C28.5145 137.726 27.0835 137.418 25.6538 137.103C21.6171 136.216 19.396 132.966 17.0671 129.936C19.7769 131.305 22.3942 132.99 24.6412 133.882C31.9263 136.775 39.6459 138.106 46.9125 134.416C47.2015 134.268 46.9981 133.788 46.6857 133.907C41.8417 135.754 37.3342 136.412 32.1728 135.419C28.223 134.659 24.3626 133.063 20.864 131.207C20.4289 130.976 19.963 130.718 19.4737 130.447C21.0292 130.749 22.6321 130.944 24.102 131.251C26.6817 131.79 29.1986 133.394 31.8302 133.564ZM6.86757 121.425C5.80941 118.418 6.81273 115.877 8.81195 113.499C11.0306 110.859 14.0565 109.25 15.6176 106.097C16.2795 104.76 16.3707 103.232 16.6603 101.803C17.0455 99.9035 17.798 98.0865 18.6916 96.3546C20.395 93.0555 23.0709 90.2385 25.7419 87.5948C25.4288 94.9679 30.7745 103.269 24.664 109.548C22.4066 111.867 19.8588 114.014 17.4658 116.212C15.1067 118.38 12.3168 119.973 9.88551 122.045C10.2368 121.187 10.6109 120.338 11.0608 119.517C12.4197 117.039 14.9144 115.202 17.051 113.349C18.8315 111.804 20.4178 110.16 21.4482 108.078C22.7221 105.504 22.5144 102.062 22.6142 99.3003C22.6266 98.9735 22.0805 98.8994 22.0072 99.223C21.3225 102.247 21.7767 105.454 20.3697 108.316C19.1778 110.739 16.6862 112.567 14.6463 114.335C12.9799 115.779 11.507 117.288 10.3397 119.119C9.24828 120.832 8.58023 122.784 7.88629 124.71C7.6367 123.595 7.25522 122.527 6.86757 121.425ZM37.7502 109.734C39.0733 107.716 41.1773 106.062 42.7754 104.231C45.2436 101.404 46.4324 98.2055 46.674 94.5812C46.8059 92.6036 46.5544 90.6702 46.5852 88.6964C46.6253 86.15 50.1868 84.3048 51.7589 82.5959C54.6937 79.4067 57.785 76.7903 60.3333 73.3265C60.965 78.3188 61.434 83.3562 61.3631 88.3858C61.2928 93.3434 62.1433 98.422 57.7449 102.043C56.015 103.467 54.1766 104.614 52.5496 106.166C50.3045 108.309 48.3336 110.265 45.5036 111.77C43.3263 112.927 40.9314 113.579 38.4909 113.988C38.1508 114.046 37.8204 114.111 37.4956 114.185C37.6362 114.079 37.7699 113.973 37.9123 113.868C41.7751 111.006 45.805 108.31 49.4602 105.208C56.6867 99.0757 56.6855 90.8883 58.3519 82.5127C58.4265 82.1388 57.8201 81.9781 57.7443 82.355C57.0171 85.9796 56.7403 89.6668 55.9595 93.2836C54.9815 97.8188 52.4455 101.547 48.9363 104.714C45.6762 107.656 41.8281 110.068 38.2654 112.667C37.3668 113.323 36.4344 113.966 35.5303 114.639C36.1096 112.94 36.7308 111.288 37.7502 109.734ZM68.5884 69.4595C64.81 66.3976 61.5184 62.8164 58.6422 58.9907C55.5589 54.89 53.3409 50.7182 53.0383 45.6409C52.9453 44.0785 52.0862 42.8111 51.1981 41.5518C49.9045 39.7183 49.9082 37.8308 49.6857 35.8037C51.4397 36.2795 53.1419 36.6704 54.7867 37.5272C57.1872 38.7778 59.0212 41.2848 60.6322 43.295C63.0757 46.3424 65.78 49.1064 68.4467 51.9781C74.9441 58.9756 77.6663 68.0881 78.8692 77.2005C77.6478 74.9074 76.3117 72.6657 74.9762 70.4327C71.9872 65.4326 67.9555 61.0859 65.0109 56.0661C64.8482 55.7886 64.4057 56.0353 64.5622 56.3139C67.0594 60.7794 70.5149 64.6509 73.2814 68.9588C74.6674 71.1168 75.9006 73.3783 77.1621 75.6025C77.2909 75.8295 77.429 76.0644 77.5707 76.3034C74.7932 73.8041 71.493 71.813 68.5884 69.4595ZM84.9101 48.1601C84.552 45.5769 83.9345 43.0269 83.4581 40.4623C82.88 37.3521 82.6477 34.2425 83.2375 31.1213C83.847 27.8901 86.0619 25.0213 88.2719 22.5905C91.8809 18.6189 96.503 15.386 100.757 12.0635C105.793 8.12909 110.96 4.34247 116.337 0.830353C117.006 6.61388 115.196 12.1752 113.757 17.7371C112.878 21.1346 111.069 23.5282 108.635 26.0835C106.665 28.1501 105.235 30.5064 103.818 32.9308C101.009 37.7354 98.5453 42.6982 95.1361 47.1672C92.287 50.9021 88.1228 53.2782 85.8444 57.191C86.0502 54.8917 86.2493 52.6098 86.4662 50.3605C86.8427 46.4569 87.1953 42.5243 89.0392 38.9523C90.8504 35.4437 93.718 32.3899 96.3575 29.4269C98.6316 26.8751 100.853 24.3268 102.878 21.5918C105.141 18.5351 106.705 15.0608 109.064 12.0868C109.25 11.853 108.834 11.6284 108.65 11.8582C106.696 14.3052 105.44 17.1548 103.625 19.6915C101.275 22.9756 98.6723 26.0317 95.952 29.0441C91.3773 34.1099 87.4603 38.9348 86.3651 45.6595C85.9134 48.4311 85.5584 51.2138 85.2422 53.9994C85.1658 52.0526 85.1788 50.1028 84.9101 48.1601ZM124.857 58.2636C124.979 57.9641 124.571 57.6302 124.294 57.9059C122.386 59.808 120.985 61.6862 118.525 63.0479C115.772 64.5718 113 65.2354 109.86 65.5717C106.098 65.9748 103.339 66.9102 100.89 69.6865C99.6892 71.0464 98.6834 72.5155 97.3227 73.7482C95.4467 75.4473 92.9464 76.6599 90.843 78.0943C87.3715 80.4635 85.6792 83.7402 83.0908 86.7596C81.9026 87.6837 80.7791 88.6657 79.7333 89.6923C80.3687 88.0618 80.9313 86.4036 81.433 84.7238C81.4996 84.6765 81.5464 84.6045 81.5482 84.5031L81.5421 84.3591C83.9049 76.2948 84.8749 67.7413 85.6465 59.3665C88.2694 54.4241 93.0536 51.3366 96.4623 46.8525C100.233 41.8926 102.788 36.187 106.004 30.9119C107.578 28.3298 109.719 26.262 111.649 23.933C113.342 21.8885 114.108 19.4868 114.757 17.0071C116.189 11.5249 117.819 6.13515 116.884 0.441788C117.044 0.222504 116.79 -0.129425 116.515 0.0474091C110.904 3.65317 105.555 7.57828 100.308 11.6395C95.5428 15.3284 90.2397 18.8882 86.489 23.5654C82.7531 28.2252 81.73 32.8488 82.4382 38.6166C82.7974 41.5436 83.4963 44.4281 84.0121 47.3318C84.6044 50.6624 84.1366 54.0547 84.878 57.3528C83.9986 65.7235 83.2775 74.0943 81.205 82.258C80.8845 81.1954 80.3816 80.1809 79.8726 79.1461C79.7561 78.9087 79.6285 78.6756 79.5083 78.4393C79.6674 78.4097 79.7986 78.2991 79.7844 78.0916C79.4646 73.394 78.1747 68.3962 76.817 63.8791C75.4852 59.4462 72.866 55.538 69.8148 51.9939C66.4696 48.1089 62.9944 44.3484 59.6757 40.4361C56.969 37.2457 53.7015 35.343 49.4423 34.7869C49.1299 34.5264 48.4335 34.6985 48.4994 35.172C48.7459 36.9478 48.6301 38.6754 49.2297 40.3913C50.0685 42.7948 51.8125 43.8953 51.9759 46.6826C52.2396 51.1999 54.4841 54.9737 57.0892 58.6813C59.6942 62.3883 62.8206 65.7514 66.228 68.8145C70.1193 72.3134 74.7765 74.9261 78.5482 78.5451C78.6807 78.6726 78.8292 78.6953 78.9642 78.6644C79.8572 80.2424 80.6626 81.924 80.8716 83.5231C80.2294 85.8805 79.4695 88.2201 78.5513 90.5357C75.7829 97.5175 71.48 103.772 65.1033 108.246C59.5309 112.158 52.806 114.402 46.1772 116.132C40.8981 117.51 35.6345 118.841 30.409 120.248C31.1633 119.732 31.8265 119.119 32.5124 118.434C33.1607 117.788 33.8238 117.185 34.498 116.598C34.6065 116.598 34.7187 116.569 34.8234 116.487C36.8227 114.927 39.5701 114.908 41.968 114.213C44.3863 113.513 46.6314 112.323 48.6806 110.947C50.6761 109.606 52.2119 107.725 53.9141 106.085C55.7013 104.362 58.2127 103.234 59.77 101.302C62.5833 97.8088 62.1649 93.3224 62.0601 89.1735C61.9165 83.505 61.6047 77.934 60.7813 72.3097C60.7369 72.0073 60.1743 72.0782 60.2137 72.3824L60.2304 72.5133L60.1527 72.5674C58.7223 74.082 57.6235 75.8172 56.1173 77.2818C54.2142 79.1327 52.2495 80.8125 50.445 82.7688C49.2593 84.0538 47.4684 84.879 46.51 86.3604C45.5357 87.8675 45.6546 89.4085 45.7921 91.136C46.2549 96.9451 44.3339 101.402 40.2572 105.668C37.2498 108.816 35.4465 111.555 34.2639 115.632C33.8768 115.953 33.499 116.283 33.1428 116.631C31.6471 118.091 30.4152 119.538 28.427 120.455C28.2372 120.543 28.1965 120.697 28.2403 120.837C21.251 122.756 14.3376 124.851 7.5535 127.418C8.13095 126.375 8.59563 125.287 9.03196 124.187C9.11023 124.164 9.18788 124.125 9.25876 124.052C12.1547 121.089 15.8622 119.101 18.9061 116.297C21.3841 114.015 24.4847 111.737 26.4777 109.052C31.1498 102.758 26.6731 94.1886 26.278 87.3227C26.2731 87.2447 26.2405 87.1866 26.1942 87.1464L26.2146 87.1259C26.4161 86.9278 26.1043 86.6322 25.8966 86.8246C23.0962 89.4196 20.4363 92.073 18.4328 95.277C16.2332 98.7936 16.3503 102.835 14.5693 106.414C12.8012 109.966 8.587 111.829 6.49657 115.248C4.2496 118.922 6.69994 122.109 7.16154 125.834C7.1788 125.973 7.25152 126.078 7.34889 126.147C7.13751 126.692 6.9181 127.231 6.67221 127.754C4.49426 128.594 2.32802 129.477 0.179658 130.428C-0.226473 130.608 0.128508 131.148 0.527243 130.988C3.07434 129.965 5.63747 128.982 8.21292 128.031C10.4038 127.482 12.7463 128.033 15.0709 129.008C15.0407 129.13 15.0586 129.261 15.1572 129.382C17.4301 132.167 19.4829 135.933 22.9809 137.459C24.4631 138.106 26.1831 138.298 27.7485 138.709C30.1736 139.346 32.0939 140.948 34.5098 141.593C37.7976 142.472 42.6576 140.831 45.6318 139.637C47.3414 138.95 49.0294 138.177 50.453 137.033C51.8464 135.912 52.7012 133.786 54.5119 133.164C54.8385 133.052 54.8551 132.586 54.5519 132.495C54.51 132.429 54.4391 132.377 54.327 132.361C51.2431 131.93 48.386 130.786 45.2436 130.685C41.8657 130.575 38.4225 131.651 35.1833 132.396C31.4055 133.262 28.8017 131.526 25.329 130.547C22.3418 129.705 19.2062 129.38 16.2006 128.603C16.1186 128.582 16.044 128.591 15.9744 128.611L15.8296 128.548C14.242 127.813 12.5737 127.213 10.9572 127.035C15.7624 125.321 20.6175 123.733 25.5305 122.295C31.7186 120.484 38.0146 119.086 44.2618 117.502C44.3081 117.603 44.4153 117.686 44.5613 117.664C48.4532 117.093 52.5379 118.004 56.4371 118.68L56.5031 118.74C56.5622 118.843 56.651 118.932 56.7896 118.984C60.003 120.19 62.3849 121.513 65.0491 123.579C66.588 124.772 68.2402 125.582 70.1303 126.135C74.6015 127.443 79.6834 125.979 83.8291 124.391C87.9403 122.816 91.9203 120.635 95.422 118.067C97.2998 116.691 99.3644 115.215 100.809 113.41C102.573 111.205 103.319 108.541 104.754 106.158C104.911 105.898 104.667 105.678 104.427 105.699C104.319 105.633 104.183 105.609 104.037 105.681C101.72 106.833 99.7748 107.503 97.1297 107.293C95.5551 107.167 94.0003 107.346 92.4639 107.647C88.6121 108.402 85.1572 110.816 81.7356 112.519C76.9076 114.923 72.7046 115.164 67.386 114.977C65.6894 114.918 64.063 115.055 62.412 115.411C60.2963 115.867 58.71 117.406 56.6226 117.915C56.5382 117.936 56.4741 117.974 56.4223 118.018C55.8547 117.935 55.2865 117.85 54.7189 117.768C51.9272 117.359 49.2402 116.774 46.478 116.929C47.0487 116.779 47.6206 116.631 48.19 116.477C54.3436 114.806 60.2988 112.455 65.5298 108.935C70.966 105.276 74.7013 100.211 77.5535 94.5865C78.0428 93.6208 78.4976 92.6413 78.9266 91.6513L79.0221 91.5822C80.3385 90.1483 81.775 88.835 83.3083 87.6396C83.402 87.6646 83.5049 87.6669 83.6134 87.6221C86.595 86.3838 89.3461 85.1768 92.6759 85.295C94.8507 85.3716 97.0761 85.8346 99.2528 85.5251C101.429 85.2157 103.115 84.4132 105.018 83.3957C107.49 82.0736 110.204 81.5198 112.741 80.3867C116.752 78.5965 119.643 75.4037 121.573 71.6896C123.573 67.8424 125.036 62.7756 124.999 58.4847C124.998 58.3672 124.936 58.2962 124.857 58.2636Z" fill="#FEE8E8"/>
</svg>
