<svg width="25" height="25" viewBox="0 0 25 25" fill="none" xmlns="http://www.w3.org/2000/svg">
<path fill-rule="evenodd" clip-rule="evenodd" d="M18.75 17.448C17.4556 17.448 16.4062 18.4973 16.4062 19.7917C16.4062 21.0862 17.4556 22.1355 18.75 22.1355C20.0444 22.1355 21.0938 21.0862 21.0938 19.7917C21.0938 18.4973 20.0444 17.448 18.75 17.448ZM14.8438 19.7917C14.8438 17.6344 16.5926 15.8855 18.75 15.8855C20.9074 15.8855 22.6562 17.6344 22.6562 19.7917C22.6562 21.9491 20.9074 23.698 18.75 23.698C16.5926 23.698 14.8438 21.9491 14.8438 19.7917Z" fill="#363D69"/>
<path fill-rule="evenodd" clip-rule="evenodd" d="M18.75 2.8645C17.4556 2.8645 16.4062 3.91383 16.4062 5.20825C16.4062 6.50267 17.4556 7.552 18.75 7.552C20.0444 7.552 21.0938 6.50267 21.0938 5.20825C21.0938 3.91383 20.0444 2.8645 18.75 2.8645ZM14.8438 5.20825C14.8438 3.05089 16.5926 1.302 18.75 1.302C20.9074 1.302 22.6562 3.05089 22.6562 5.20825C22.6562 7.36561 20.9074 9.1145 18.75 9.1145C16.5926 9.1145 14.8438 7.36561 14.8438 5.20825Z" fill="#363D69"/>
<path fill-rule="evenodd" clip-rule="evenodd" d="M6.25 10.1562C4.95558 10.1562 3.90625 11.2056 3.90625 12.5C3.90625 13.7944 4.95558 14.8438 6.25 14.8438C7.54442 14.8438 8.59375 13.7944 8.59375 12.5C8.59375 11.2056 7.54442 10.1562 6.25 10.1562ZM2.34375 12.5C2.34375 10.3426 4.09264 8.59375 6.25 8.59375C8.40736 8.59375 10.1562 10.3426 10.1562 12.5C10.1562 14.6574 8.40736 16.4062 6.25 16.4062C4.09264 16.4062 2.34375 14.6574 2.34375 12.5Z" fill="#363D69"/>
<path fill-rule="evenodd" clip-rule="evenodd" d="M8.46655 10.2592L15.7582 6.09253L16.5334 7.44916L9.24177 11.6158L8.46655 10.2592Z" fill="#363D69"/>
<path fill-rule="evenodd" clip-rule="evenodd" d="M15.7582 18.9076L8.46655 14.7409L9.24177 13.3843L16.5334 17.5509L15.7582 18.9076Z" fill="#363D69"/>
</svg>
