<svg width="26" height="26" viewBox="0 0 26 26" fill="none" xmlns="http://www.w3.org/2000/svg">
<path d="M1.99996 1.5H24.0001C24.5523 1.5 25 1.94764 25.0001 2.49987L25.0004 5.08569C25.0005 5.35097 24.8951 5.60538 24.7075 5.79295L15.9595 14.5404C15.772 14.728 15.6666 14.9823 15.6666 15.2476L15.6666 24.2192C15.6666 24.8698 15.0552 25.3472 14.4241 25.1894L11.0908 24.356C10.6456 24.2447 10.3333 23.8448 10.3333 23.3859L10.3333 15.2475C10.3333 14.9823 10.2279 14.728 10.0404 14.5404L1.29286 5.79289C1.10532 5.60536 0.999964 5.351 0.999964 5.08579V2.5C0.999964 1.94772 1.44768 1.5 1.99996 1.5Z" stroke="black" stroke-width="1.5" stroke-linecap="round" stroke-linejoin="round"/>
</svg>
