<svg width="29" height="29" viewBox="0 0 29 29" fill="none" xmlns="http://www.w3.org/2000/svg">
<path d="M14.5 27L2.1797 11.5996C1.84718 11.184 1.68092 10.9762 1.63625 10.7257C1.59159 10.4752 1.67575 10.2228 1.84407 9.71778L3.8383 3.73509C4.27832 2.41505 4.49832 1.75503 5.0221 1.37752C5.54587 1 6.24159 1 7.63304 1H21.367C22.7584 1 23.4541 1 23.9779 1.37752C24.5017 1.75503 24.7217 2.41505 25.1617 3.73509L27.1559 9.71778C27.3243 10.2228 27.4084 10.4752 27.3637 10.7257C27.3191 10.9762 27.1528 11.184 26.8203 11.5996L14.5 27ZM14.5 27L20.1875 9.125M14.5 27L8.8125 9.125M26.6875 10.75L20.1875 9.125M20.1875 9.125L17.75 2.625M20.1875 9.125H8.8125M11.25 2.625L8.8125 9.125M8.8125 9.125L2.3125 10.75" stroke="#192D5F" stroke-width="2" stroke-linecap="round"/>
</svg>
